<?xml version="1.0" encoding="utf-8"?>
<svg id="Layer_1" x="0px" y="0px" width="45px" height="45px" viewBox="0 0 64 64" xmlns="http://www.w3.org/2000/svg">
  <g transform="matrix(-1, 0, 0, -1, 63.999996, 64)">
    <polygon fill="none" stroke="#000000" stroke-width="3" stroke-linejoin="bevel" stroke-miterlimit="10" points="36,21 50,32 &#10;&#9;&#9;36,43 &#9;"/>
    <polygon fill="none" stroke="#000000" stroke-width="3" stroke-linejoin="bevel" stroke-miterlimit="10" points="16,21 30,32 &#10;&#9;&#9;16,43 &#9;"/>
    <path fill="none" stroke="#000000" stroke-width="3" stroke-miterlimit="10" d="M53.92,10.081&#10;&#9;&#9;c12.107,12.105,12.107,31.732,0,43.838c-12.106,12.108-31.734,12.108-43.84,0c-12.107-12.105-12.107-31.732,0-43.838&#10;&#9;&#9;C22.186-2.027,41.813-2.027,53.92,10.081z"/>
  </g>
</svg>